<svg width="35" height="35" viewBox="0 0 35 35" fill="none" xmlns="http://www.w3.org/2000/svg">
<rect width="35" height="35" fill="#1E1E1E"/>
<g id="Desktop_1440" clip-path="url(#clip0_0_1)">
<rect width="1440" height="3676" transform="translate(-165 -3531)" fill="#F4F6F5"/>
<g id="footer">
<rect width="1440" height="168" transform="translate(-165 -23)" fill="#E1EDE6"/>
<g id="Frame 85">
<path id="Star 1" d="M17.5 0L19.9652 9.10444L26.9612 2.77806L24.1128 11.77L33.4186 10.2302L26.1609 16.2547L34.8219 19.9905L25.4593 21.1349L30.7256 28.9601L22.2306 24.861L22.4303 34.2911L17.5 26.25L12.5697 34.2911L12.7694 24.861L4.27438 28.9601L9.54072 21.1349L0.178125 19.9905L8.83906 16.2547L1.58144 10.2302L10.8872 11.77L8.03879 2.77806L15.0348 9.10444L17.5 0Z" fill="#6B6B8A"/>
</g>
</g>
</g>
<defs>
<clipPath id="clip0_0_1">
<rect width="1440" height="3676" fill="white" transform="translate(-165 -3531)"/>
</clipPath>
</defs>
</svg>
